<mxfile host="65bd71144e">
    <diagram id="3J9apohlljAO0n76V3PL" name="Page-1">
        <mxGraphModel dx="937" dy="630" grid="1" gridSize="10" guides="1" tooltips="1" connect="1" arrows="1" fold="1" page="1" pageScale="1" pageWidth="850" pageHeight="1100" math="0" shadow="0">
            <root>
                <mxCell id="0"/>
                <mxCell id="1" parent="0"/>
                <mxCell id="10" style="edgeStyle=none;html=1;" edge="1" parent="1" source="2" target="4">
                    <mxGeometry relative="1" as="geometry"/>
                </mxCell>
                <mxCell id="2" value="" style="sketch=0;outlineConnect=0;fontColor=#232F3E;gradientColor=none;fillColor=#232F3D;strokeColor=none;dashed=0;verticalLabelPosition=bottom;verticalAlign=top;align=center;html=1;fontSize=12;fontStyle=0;aspect=fixed;pointerEvents=1;shape=mxgraph.aws4.user;" vertex="1" parent="1">
                    <mxGeometry x="401" y="90" width="48" height="48" as="geometry"/>
                </mxCell>
                <mxCell id="11" value="&lt;font&gt;&lt;b&gt;1. /ingest&lt;/b&gt;&lt;/font&gt;&lt;div&gt;&lt;font&gt;&lt;b&gt;3. /chat&lt;/b&gt;&lt;/font&gt;&lt;/div&gt;" style="edgeStyle=none;html=1;entryX=0.344;entryY=0.013;entryDx=0;entryDy=0;exitX=0.374;exitY=1.003;exitDx=0;exitDy=0;exitPerimeter=0;entryPerimeter=0;" edge="1" parent="1" source="4" target="5">
                    <mxGeometry x="0.102" y="-37" relative="1" as="geometry">
                        <mxPoint as="offset"/>
                    </mxGeometry>
                </mxCell>
                <mxCell id="4" style="shape=image;verticalAlign=top;aspect=fixed;imageAspect=0;editableCssRules=.*;image=data:image/svg+xml,PHN2ZyB4bWxucz0iaHR0cDovL3d3dy53My5vcmcvMjAwMC9zdmciIHZpZXdCb3g9IjAgMCAyNCAyNCI+PGc+PHBhdGggZmlsbD0iY3VycmVudENvbG9yIiBkPSJtMTEuMzQ1IDIuNDA1bC0uMzAzLjAyN2MtMi44NC4yNTYtNS41MDEgMS43ODktNy4xODcgNC4xNDRhOS45IDkuOSAwIDAgMC0xLjc2NSA0LjM3Yy0uMDguNTQ4LS4wOS43MS0uMDkgMS40NTVzLjAxLjkwNy4wOSAxLjQ1N2MuNTQzIDMuNzU1IDMuMjE2IDYuOTEgNi44NCA4LjA3OWMuNjUuMjA5IDEuMzM0LjM1MSAyLjExMi40MzhjLjMwMy4wMzMgMS42MTMuMDMzIDEuOTE2IDBjMS4zNDMtLjE1IDIuNDgtLjQ4MSAzLjYwMy0xLjA1NGMuMTcyLS4wODguMjA1LS4xMTIuMTgyLS4xMzFjLS4wMTYtLjAxMi0uNzQ5LS45OTUtMS42MjktMi4xODRsLTEuNTk5LTIuMTZsLTIuMDA0LTIuOTY1YTI4NyAyODcgMCAwIDAtMi4wMTctMi45NjNjLS4wMDgtLjAwMi0uMDE2IDEuMzE1LS4wMiAyLjkyNGMtLjAwNiAyLjgxNy0uMDA4IDIuOTMtLjA0MyAyLjk5N2EuMzYuMzYgMCAwIDEtLjE3Mi4xNzhjLS4wNjMuMDMtLjExNy4wMzctLjQxMi4wMzdoLS4zMzlsLS4wOS0uMDU3YS40LjQgMCAwIDEtLjEzLS4xNDNsLS4wNDItLjA4OGwuMDA0LTMuOTE5bC4wMDYtMy45MjFsLjA2LS4wNzZhLjUuNSAwIDAgMSAuMTQ1LS4xMmMuMDgtLjAzOS4xMTItLjA0My40NS0uMDQzYy4zOTkgMCAuNDY1LjAxNi41NjkuMTNjLjAzLjAzIDEuMTE0IDEuNjY1IDIuNDEyIDMuNjMzbDMuOTQ2IDUuOTc2bDEuNTgzIDIuMzk4bC4wOC0uMDUyYy43MS0uNDYyIDEuNDYtMS4xMTggMi4wNTUtMS44MDNhOS45NSA5Ljk1IDAgMCAwIDIuMzU0LTUuMTExYy4wOC0uNTUuMDktLjcxMi4wOS0xLjQ1N2MwLS43NDQtLjAxLS45MDctLjA5LTEuNDU2Yy0uNTQzLTMuNzU1LTMuMjE2LTYuOTEtNi44NC04LjA3OWExMC41IDEwLjUgMCAwIDAtMi4wODMtLjQzNmMtLjE4Ny0uMDItMS40OC0uMDQtMS42NDItLjAyNW00LjA5NCA2LjA0OGMuMDk0LjA0Ny4xNy4xMzcuMTk3LjIzYy4wMTYuMDUxLjAyIDEuMTM4LjAxNiAzLjU4N2wtLjAwNiAzLjUxNWwtLjYyLS45NWwtLjYyMS0uOTVWMTEuMzNjMC0xLjY1Mi4wMDgtMi41OC4wMi0yLjYyNWEuNC40IDAgMCAxIC4xOTMtLjI0NmMuMDgtLjA0MS4xMS0uMDQ1LjQxNi0uMDQ1Yy4yOSAwIC4zNC4wMDQuNDA1LjAzOSIgY2xhc3M9InAwLWZpbGwiPjwvcGF0aD48c3R5bGU+LnAwLWZpbGx7ZmlsbDpjdXJyZW50Q29sb3J9PC9zdHlsZT48L2c+PC9zdmc+;" vertex="1" parent="1">
                    <mxGeometry x="393" y="170" width="64" height="64" as="geometry"/>
                </mxCell>
                <mxCell id="12" value="&lt;b&gt;2. Git clone&lt;/b&gt;" style="edgeStyle=none;html=1;entryX=0;entryY=0.5;entryDx=0;entryDy=0;" edge="1" parent="1" source="5" target="8">
                    <mxGeometry relative="1" as="geometry"/>
                </mxCell>
                <mxCell id="13" value="&lt;b&gt;2. Read Files &amp;amp; Split Code&lt;/b&gt;&lt;div&gt;&lt;b&gt;4. Query&lt;/b&gt;&lt;/div&gt;" style="edgeStyle=none;html=1;exitX=0.68;exitY=1.047;exitDx=0;exitDy=0;exitPerimeter=0;" edge="1" parent="1" source="5">
                    <mxGeometry x="-0.1147" y="76" relative="1" as="geometry">
                        <mxPoint x="434" y="480" as="targetPoint"/>
                        <mxPoint as="offset"/>
                    </mxGeometry>
                </mxCell>
                <mxCell id="20" value="&lt;b&gt;4. Response&lt;/b&gt;" style="edgeStyle=none;html=1;exitX=0.666;exitY=0.013;exitDx=0;exitDy=0;entryX=0.622;entryY=1.016;entryDx=0;entryDy=0;entryPerimeter=0;exitPerimeter=0;" edge="1" parent="1" source="5" target="4">
                    <mxGeometry x="-0.1123" y="-37" relative="1" as="geometry">
                        <mxPoint as="offset"/>
                    </mxGeometry>
                </mxCell>
                <mxCell id="5" style="shape=image;verticalAlign=top;aspect=fixed;imageAspect=0;editableCssRules=.*;image=data:image/svg+xml,PHN2ZyB4bWxucz0iaHR0cDovL3d3dy53My5vcmcvMjAwMC9zdmciIHZpZXdCb3g9IjAgMCAxMjggMTI4Ij48Zz48cGF0aCBmaWxsPSJjdXJyZW50Q29sb3IiIGQ9Ik01Ni44MTMgMTI3LjU4NmMtMS45MDMtLjIyNy0zLjg5OS0uNTItNC40MzQtLjY1MmE0OCA0OCAwIDAgMC0yLjM3NS0uNWEzNiAzNiAwIDAgMS0yLjcwMy0uNjMzYy00LjE0NS0xLjE4OC00LjQ0Mi0xLjI4NS03LjU2Ny0yLjU2M2MtMi44NzUtMS4xNzItOC4xNzItMy45MS05Ljk4NC01LjE1NmMtLjQ5Ni0uMzQ0LS45Ni0uNjIxLTEuMDMxLS42MjFzLTEuMjMtLjgxNi0yLjU3OC0xLjgxM2MtOC41Ny02LjM0My0xNS4wMDQtMTQuMDQzLTE5LjY1My0yMy41MjdjLS44LTEuNjI5LTEuNDUzLTMuMDc0LTEuNDUzLTMuMjFjMC0uMTM0LS4xNDQtLjUwNS0uMzItLjgxN2MtLjM2My0uNjQ5LS44OC0yLjA0Ny0xLjI5Ny0zLjQ5MmEyMCAyMCAwIDAgMC0uNjI1LTEuODEzYy0uMTk1LS40Ni0uMzUyLTEuMDItLjM1Mi0xLjI0NmMwLS4yMjctLjE5NS0uOTY1LS40MzMtMS42NDVjLS4yMzgtLjY3NS0uNDMtMS40NzItLjQzLTEuNzdjMC0uMjk2LS4xODctMS4zMi0uNDE4LTIuMjc2Qy41OTggNzMuNDkyIDAgNjcuMzc5IDAgNjMuOTUzYzAtMy40MjIuNTk4LTkuNTM1IDEuMTYtMTEuODk0Yy4yMy0uOTU3LjQxOC0yIC40MTgtMi4zMmMwLS4zMjEuMTQ1LS45NS4zMi0xLjRjLjE4LS40NDguNDEtMS4yNTMuNTE2LTEuNzg4Yy4xMS0uNTM1LjM2LTEuNDU3LjU2My0yLjA1NWwuNTktMS43MjZjLjQzMy0xLjI5My44MzUtMi4zODcgMS4wMjctMi44MTNjLjExLS4yMzguNTM5LTEuMjEuOTU3LTIuMTZjLjY3Ni0xLjUzNSAyLjEyNS00LjQzIDIuOTcyLTUuOTQ1Yy4zMDktLjU1NS40MjYtLjczOSAyLjA5OC0zLjM1MmMyLjY0OS00LjE0OCA3LjE3Ni05LjMwOSAxMS4zOS0xMi45ODhjMS40ODUtMS4yOTcgNi40NDYtNS4wNjMgNi42NjktNS4wNjNjLjA2MiAwIC41My0uMjgxIDEuMDQzLS42MjVjMS4zNDctLjkwMiAyLjY2OC0xLjY2OCA0LjM5LTIuNTMxYTUzIDUzIDAgMCAwIDEuODM2LS45NTNjLjI4NS0uMTY0LjgyLS40MSAzLjU2Ny0xLjY0Yy42MDUtLjI3IDEuMjU3LS41MTYgMy4xMzYtMS4xNzNjLjQxNC0uMTQ0IDEuMjQ2LS40NDkgMS44NC0uNjcyYy41OTgtLjIyMiAxLjMwMS0uNDA2IDEuNTYzLS40MDZjLjI1OCAwIC45MzctLjE4IDEuNTA4LS40MDJjLjU3LS4yMjMgMS42MDUtLjQ3NyAyLjMwNC0uNTYzYy42OTYtLjA4MiAxLjYyMS0uMjc3IDIuMDU1LS40M2MuNDMtLjE0OCAxLjYxLS4zNCAyLjYyMS0uNDI1YTczIDczIDAgMCAwIDMuOTQxLS40NjVjMi42ODgtLjM5NCA4LjUzMi0uMzk0IDExLjE5MiAwYTc1IDc1IDAgMCAwIDMuNzgxLjQ0NWMuOTUzLjA3OSAyLjE2OC4yNzggMi43MDMuNDQyYy41MzUuMTYgMS40NjEuMzYgMi4wNTUuNDMzYy41OTQuMDc5IDEuNTk0LjMyNSAyLjIyMi41NTFjLjYzLjIzIDEuMzQ0LjQxNCAxLjU5LjQxNHMuNzU0LjEzNyAxLjEyNS4zMDljLjM3NS4xNjggMS4xNjguNDQ5IDEuNzY2LjYyNWMuNTk0LjE4IDEuNjEzLjUzNSAyLjI3Ljc5N2MuNjUyLjI2MSAxLjUyNy42MDUgMS45NDUuNzYxYy43Ny4yOSA2LjQ2IDMuMTM3IDcuMjM0IDMuNjIyYzYuMjgxIDMuOTE3IDkuNTEyIDYuNDc2IDEzLjg1NiAxMC45NjRjNS4yMzggNS40MTQgOC43MTUgMTAuNTcgMTIuMjU0IDE4LjE2Yy4yNS41MzYuNjMyIDEuMzI5Ljg1MSAxLjc1OGMuMjE1LjQzNC4zOTUuOTQyLjM5NSAxLjEzYzAgLjE5LjE4Ljc2LjQwMiAxLjI2OWMuNjAyIDEuMzgzIDEuMTE3IDIuOTU3IDEuMzYgNC4xNmMuMTIuNTkuMzQzIDEuMzIuNDk1IDEuNjIxYy4xNTMuMy4zMzIgMS4wNjMuNDAzIDEuNjg4Yy4wNy42MjQuMjc3IDEuNjQ4LjQ1MyAyLjI2OWMxLjAyIDMuNTMxIDEuNTI3IDEzLjkzNC45MSAxOC41MzVjLS4xODMgMS4zNjctLjM5IDMuMDItLjQ2IDMuNjcyYy0uMTE4IDEuMTE3LS43MDggNC4wMDQtMS4yMTIgNS45NDVsLS41MiAyLjA1NWMtLjk4IDMuOTU3LTMuNDAyIDkuNTk0LTYuMzU5IDE0LjgwOWMtMS4xNzIgMi4wNy01LjEwMSA3LjY2OC01Ljg0MyA4LjMyNGMtLjA2Ny4wNTgtLjM5OS40NS0uNzM1Ljg2M2MtLjMzNi40MTgtMS40MTQgMS41ODYtMi4zOSAyLjU5NGMtNC4zMDEgNC40NDEtNy43NyA3LjE4Ny0xMy44NiAxMC45NjljLS43MjIuNDQ5LTYuODQ3IDMuNDQxLTcuOTkyIDMuOTA2Yy0uNTk0LjIzOC0xLjU4Ni42NC0yLjIwMy44OWMtLjYxMy4yNDctMS4yOTcuNDU0LTEuNTEyLjQ1OGMtLjIxNS4wMDMtLjc4MS4xOTUtMS4yNTguNDI1Yy0uNDc2LjIzLTEuMDgyLjQyMi0xLjM1MS40MjZjLS4yNjYuMDA0LTEuMDQzLjE5Mi0xLjcyNy40MThjLS42ODMuMjMtMS42MzMuNDc3LTIuMTEuNTVjLS40NzYuMDc1LTEuNDk1LjI3OC0yLjI2OS40NWMtLjc3My4xNzItMy4xMS41MDgtNS4xODcuNzQ2YTU5IDU5IDAgMCAxLTEzLjk0NS0uMDMxbTQuNzAzLTEyLjVjLjMtLjIzNC42MDktLjcuNjkxLTEuMDI3Yy4xOC0uNzIzIDI5LjIzNC01OC45NyAyOS43ODEtNTkuN2MuNDYxLS42MTcuNTA0LTEuNjA1LjA4Mi0xLjk1M2MtLjIyMi0uMTg3LTMuMDA0LS4yNDYtMTAuNDMtLjIzNGMtNS41Ny4wMTItMTAuMjUzLjAxNi0xMC40MDYuMDEyYy0uMjI2LS4wMDgtLjI3My0zLjczLS4yNS0xOS42NzJjLjAxNi0xMC44MTctLjAzNS0xOS43NjYtLjExMy0xOS44OWMtLjA3OC0uMTI2LS4zODMtLjIyNy0uNjgtLjIyN2MtLjQxOCAwLS42MTMuMTgtLjg3LjgwOGMtLjQ4NSAxLjE2OC0xLjgyNSAzLjgyLTguMzQ4IDE2LjQ4NWEzNTU1IDM1NTUgMCAwIDAtNC4wNTUgNy44OWMtMS4xNTYgMi4yNjItMi45OCA1LjgxMy00LjA0NyA3Ljg5YTg3NTEgODc1MSAwIDAgMC04LjU5OCAxNi43NTljLTQuOTMzIDkuNjM2LTUuNTMgMTAuNzg1LTUuNzQyIDExLjAzOWMtLjQxLjQ5Ni0uNjMzIDEuNjQtLjQwMiAyLjA3Yy4yMS4zOTQuNjI5LjQxIDExLjA0My4zOTRjNS45NTMtLjAwNyAxMC44NjMuMDI0IDEwLjkxNC4wN2MuMTM3LjE0MS4wODYgMzcuMzEtLjA1NSAzOC4xOTZjLS4wOTMuNTgyLS4wMzEuODkuMjM1IDEuMTU2Yy40Ni40NjEuNTg2LjQ1NyAxLjI1LS4wNjZtMCAwIiBjbGFzcz0icDAtZmlsbCI+PC9wYXRoPjxzdHlsZT4ucDAtZmlsbHtmaWxsOmN1cnJlbnRDb2xvcn08L3N0eWxlPjwvZz48L3N2Zz4=;" vertex="1" parent="1">
                    <mxGeometry x="400" y="320" width="50" height="50" as="geometry"/>
                </mxCell>
                <mxCell id="15" value="&lt;b&gt;4. Retrieve&lt;/b&gt;" style="edgeStyle=none;html=1;entryX=1;entryY=0.5;entryDx=0;entryDy=0;" edge="1" parent="1" source="6" target="9">
                    <mxGeometry relative="1" as="geometry"/>
                </mxCell>
                <mxCell id="21" value="&lt;b&gt;4. Generate&lt;/b&gt;" style="edgeStyle=none;html=1;entryX=0;entryY=0.75;entryDx=0;entryDy=0;exitX=1.021;exitY=0.746;exitDx=0;exitDy=0;exitPerimeter=0;" edge="1" parent="1" source="6" target="7">
                    <mxGeometry relative="1" as="geometry"/>
                </mxCell>
                <mxCell id="24" value="&lt;b&gt;4. Answer&lt;/b&gt;" style="edgeStyle=none;html=1;entryX=0.347;entryY=0.993;entryDx=0;entryDy=0;entryPerimeter=0;" edge="1" parent="1" target="5">
                    <mxGeometry x="-0.4573" y="17" relative="1" as="geometry">
                        <mxPoint x="425" y="380" as="targetPoint"/>
                        <mxPoint x="417" y="480" as="sourcePoint"/>
                        <mxPoint as="offset"/>
                    </mxGeometry>
                </mxCell>
                <mxCell id="6" style="shape=image;verticalAlign=top;aspect=fixed;imageAspect=0;editableCssRules=.*;image=data:image/svg+xml,PHN2ZyB4bWxucz0iaHR0cDovL3d3dy53My5vcmcvMjAwMC9zdmciIHZpZXdCb3g9IjAgMCAzMiAzMiI+PGc+PGcgZmlsbD0iY3VycmVudENvbG9yIiBjbGFzcz0iZzAtZmlsbCI+PHBhdGggZD0iTTYuODYgOC4yMDNhLjUuNSAwIDEgMCAwLTFhLjUuNSAwIDAgMCAwIDEiPjwvcGF0aD48cGF0aCBkPSJtMjkuODQ0IDIxLjU1OGwuMDg3LjA4NGEzLjQ3IDMuNDcgMCAwIDEgMS4wNiAyLjU0N3Y1LjQ5MWEyLjMxIDIuMzEgMCAwIDEtMi4zMSAyLjMxaC0xLjM3YTIuMzEgMi4zMSAwIDAgMS0yLjMxLTIuMzF2LTIuMTUxbC0uNjQ0LS4zOTVsLTEuNzc1IDMuMjIybC0uMDIxLjAyOGMtLjI2Ny4zNTUtLjY4LjU4NS0xLjE1LjU4NWgtMS4wM2MtLjYyNCAwLS45Ni0uNjQ1LS43NDQtMS4xNTVsMS42NzYtNC41NDdsLjAxNC0uMDI3bC4wMDEtLjAwMmE1LjUgNS41IDAgMCAxLS43ODQtLjczMkE2LjQgNi40IDAgMCAxIDE4LjA3IDI1aC0uNTUxbDEuMjc3IDQuOTUybC4wMDIuMDA4YS45NC45NCAwIDAgMS0uMDUyLjU4MWEuNzEuNzEgMCAwIDEtLjY1Ni40MjhoLS4wMDRsLTEuMzk4LS4wMWMtLjEyNyAwLS4zLS4wMi0uNDY2LS4xMDVhLjc2Ljc2IDAgMCAxLS4zOTctLjUwN2wtLjg3Mi0zLjMwOGEuMTUuMTUgMCAwIDAtLjA2LS4wODdsLS4wMDMtLjAwMmEzIDMgMCAwIDEtLjE0My0uMDkyYTQuNyA0LjcgMCAwIDEtLjc0NyAxLjM5djEuNDQyYzAgMS4zMTYtMS4wNzcgMi4zMS0yLjMyIDIuMzFoLTEuMzdjLTEuMjI1IDAtMi4zMzMtLjk5OC0yLjMtMi4zNDVWMjMuODdBNi43MiA2LjcyIDAgMCAxIDUgMTguMjZ2LTUuNzI5aC0uNzNjLTEuMTQxIDAtMS45ODItLjY0MS0yLjQ2LTEuMjM4QTMuNjggMy42OCAwIDAgMSAxIDkuMDMxYzAtLjUxMS4xMjMtMS4wNDguMzAzLTEuNWMuMTU4LS4zOTUuNTEtMS4xMTUgMS4yNDEtMS41N2wuMDA0LS4wMDJsMy4xMDgtMS45MjJxLjIwNy0uMTMyLjQxNS0uMjQ1bC0uMjY4LS44MThBMi4yNSAyLjI1IDAgMCAxIDcuOTQxIDBhNC4yMyA0LjIzIDAgMCAxIDMuOTg5IDIuODQybC4wMDUuMDE1bDMuMzQyIDEwLjEwM2g3Ljk3NGMxLjE0MiAwIDIuMjA2LjMzMyAzLjEwMS45MDhhMiAyIDAgMSAxIDIuMzUgMy4wMDZjLjE5NC41NzcuMyAxLjE5NC4zIDEuODM2djIuMjF6bS0yLjU3My41NjJhLjk0Ljk0IDAgMCAxLS4yNy0uNjZ2LTIuNzVjMC0yLjA3LTEuNjgtMy43NS0zLjc1LTMuNzVoLTguMTdjLS42NiAwLTEuMjctLjM4LTEuNTctLjk3TDEwLjA0MSAzLjVhMi4yNCAyLjI0IDAgMCAwLTEuNTMtMS40MjVsLS4wMzQtLjAwOUEyLjIgMi4yIDAgMCAwIDcuOTQxIDJjLS4xOCAwLS4zLjE3LS4yNC4zNEw4LjU3MSA1YTEgMSAwIDAgMC0uMTM1LjAxNmMtLjEzNi4wMjUtLjM0LjA3OS0uNTc5LjE2NGEyLjk2IDIuOTYgMCAwIDEgMS45NDQgMi43N3YxYzAgMS4xMjYtLjkxMSAyLjA1LTIuMDQgMi4wNWgtLjc2djcuMjZjMCAyLjAxIDEuMjUgMy43MiAzLjAxIDQuNDF2Ny4wMmMtLjAxLjE3LjEzLjMxLjMuMzFoMS4zN2MuMTM3IDAgLjI1LS4wOC4yOTctLjE5NGEuMy4zIDAgMCAwIC4wMjMtLjExNnYtMS45NnEwLS4wNTcuMDEtLjExYS42Ny42NyAwIDAgMSAuMTctLjMzYy41My0uNTIuODItMS4yMy44Mi0xLjk3VjIzaDUuMDdhNC40NSA0LjQ1IDAgMCAwIDMuMzMtMS41YzAgLjc0OS4zMDUgMS4zOTYuODg0IDEuOTMycS4yMjIuMjA1LjQ5Ni4zODhsMy45NiAyLjQzYS42MS42MSAwIDAgMSAuMjYuNXYyLjkzYzAgLjE3LjE0LjMxLjMxLjMxaDEuMzdjLjE3IDAgLjMxLS4xNC4zMS0uMzF2LTUuNTFjLjAxLS40LS4xNS0uOC0uNDUtMS4wOXpNMy4wMyA5Yy4xMjUuNTcyLjYzMyAxIDEuMjQxIDFoMy40OWMuNTcgMCAxLjA0LS40NyAxLjA0LTEuMDV2LTFBMS45NiAxLjk2IDAgMCAwIDUuODkgNi4yNDVMMy42IDcuNjZhMSAxIDAgMCAwLS4zMDcuMzRIMy41Yy4yOCAwIC41LjIyLjUuNXMtLjIyLjUtLjUuNXoiPjwvcGF0aD48L2c+PHN0eWxlPi5nMC1maWxse2ZpbGw6Y3VycmVudENvbG9yfTwvc3R5bGU+PC9nPjwvc3ZnPg==;" vertex="1" parent="1">
                    <mxGeometry x="396" y="482" width="58" height="58" as="geometry"/>
                </mxCell>
                <mxCell id="22" style="edgeStyle=none;html=1;entryX=1;entryY=0.25;entryDx=0;entryDy=0;exitX=0;exitY=0.25;exitDx=0;exitDy=0;" edge="1" parent="1" source="7" target="6">
                    <mxGeometry relative="1" as="geometry"/>
                </mxCell>
                <mxCell id="23" value="&lt;b&gt;4. Answer&lt;/b&gt;" style="edgeLabel;html=1;align=center;verticalAlign=middle;resizable=0;points=[];" vertex="1" connectable="0" parent="22">
                    <mxGeometry x="-0.1034" y="1" relative="1" as="geometry">
                        <mxPoint as="offset"/>
                    </mxGeometry>
                </mxCell>
                <mxCell id="7" style="shape=image;verticalAlign=top;aspect=fixed;imageAspect=0;editableCssRules=.*;image=data:image/svg+xml,PHN2ZyB4bWxucz0iaHR0cDovL3d3dy53My5vcmcvMjAwMC9zdmciIHZpZXdCb3g9IjAgMCAyNCAyNCI+PGc+PHBhdGggZmlsbD0ibm9uZSIgc3Ryb2tlPSJjdXJyZW50Q29sb3IiIHN0cm9rZS1saW5lY2FwPSJyb3VuZCIgc3Ryb2tlLWxpbmVqb2luPSJyb3VuZCIgc3Ryb2tlLXdpZHRoPSIyIiBkPSJNMTQuMSAxMy4zTDggMTYuOGwtNC4yLTIuNkE0IDQgMCAwIDEgNiA2LjdtNiA3LjhMNiAxMVY2YTQgNCAwIDAgMSA3LjYtMm0tMy43IDkuM1Y2LjJsNC40LTIuNmE0IDQgMCAwIDEgNS4zIDUuOG0tOS43IDEuM0wxNiA3LjJsNC4yIDIuNmE0IDQgMCAwIDEtMi4yIDcuNW0tNi03LjhsNiAzLjV2NWE0IDQgMCAwIDEtNy42IDJtMy43LTkuM3Y3LjFsLTQuNCAyLjZhNCA0IDAgMCAxLTUuMy01LjgiIGNsYXNzPSJwMC1zdHJva2UiPjwvcGF0aD48c3R5bGU+LnAwLXN0cm9rZXtzdHJva2U6Y3VycmVudENvbG9yfTwvc3R5bGU+PC9nPjwvc3ZnPg==;" vertex="1" parent="1">
                    <mxGeometry x="570" y="482" width="58" height="58" as="geometry"/>
                </mxCell>
                <mxCell id="8" style="shape=image;verticalAlign=top;aspect=fixed;imageAspect=0;editableCssRules=.*;image=data:image/svg+xml,PHN2ZyB4bWxucz0iaHR0cDovL3d3dy53My5vcmcvMjAwMC9zdmciIHZpZXdCb3g9IjAgMCAyNCAyNCI+PGc+PHBhdGggZmlsbD0iY3VycmVudENvbG9yIiBkPSJNMTIgMi4yNDdhMTAgMTAgMCAwIDAtMy4xNjIgMTkuNDg3Yy41LjA4OC42ODctLjIxMi42ODctLjQ3NWMwLS4yMzctLjAxMi0xLjAyNS0uMDEyLTEuODYyYy0yLjUxMy40NjItMy4xNjMtLjYxMy0zLjM2My0xLjE3NWEzLjY0IDMuNjQgMCAwIDAtMS4wMjUtMS40MTNjLS4zNS0uMTg3LS44NS0uNjUtLjAxMy0uNjYyYTIgMiAwIDAgMSAxLjUzOCAxLjAyNWEyLjEzNyAyLjEzNyAwIDAgMCAyLjkxMi44MjVhMi4xIDIuMSAwIDAgMSAuNjM4LTEuMzM4Yy0yLjIyNS0uMjUtNC41NS0xLjExMi00LjU1LTQuOTM3YTMuOSAzLjkgMCAwIDEgMS4wMjUtMi42ODhhMy42IDMuNiAwIDAgMSAuMS0yLjY1cy44MzctLjI2MiAyLjc1IDEuMDI1YTkuNDMgOS40MyAwIDAgMSA1IDBjMS45MTItMS4zIDIuNzUtMS4wMjUgMi43NS0xLjAyNWEzLjYgMy42IDAgMCAxIC4xIDIuNjVhMy44NyAzLjg3IDAgMCAxIDEuMDI1IDIuNjg4YzAgMy44MzctMi4zMzggNC42ODctNC41NjIgNC45MzdhMi4zNyAyLjM3IDAgMCAxIC42NzQgMS44NWMwIDEuMzM4LS4wMTIgMi40MTMtLjAxMiAyLjc1YzAgLjI2My4xODcuNTc1LjY4Ny40NzVBMTAuMDA1IDEwLjAwNSAwIDAgMCAxMiAyLjI0NyIgY2xhc3M9InAwLWZpbGwiPjwvcGF0aD48c3R5bGU+LnAwLWZpbGx7ZmlsbDpjdXJyZW50Q29sb3J9PC9zdHlsZT48L2c+PC9zdmc+;" vertex="1" parent="1">
                    <mxGeometry x="569" y="315" width="60" height="60" as="geometry"/>
                </mxCell>
                <mxCell id="9" style="shape=image;verticalAlign=top;aspect=fixed;imageAspect=0;editableCssRules=.*;image=data:image/svg+xml,PHN2ZyB4bWxucz0iaHR0cDovL3d3dy53My5vcmcvMjAwMC9zdmciIHZpZXdCb3g9IjAgMCAyNTYgMjk2Ij48Zz48ZGVmcz48bGluZWFyR3JhZGllbnQgaWQ9ImxvZ29zUWRyYW50SWNvbjAiIHgxPSI4MS41NjIlIiB4Mj0iLTE4LjA4NiUiIHkxPSI0NC44NDIlIiB5Mj0iNDQuODQyJSI+PHN0b3Agb2Zmc2V0PSIwJSIgc3RvcC1jb2xvcj0iI0ZGMzM2NCI+PC9zdG9wPjxzdG9wIG9mZnNldD0iMTAwJSIgc3RvcC1jb2xvcj0iI0M5MTU0MCIgc3RvcC1vcGFjaXR5PSIwIj48L3N0b3A+PC9saW5lYXJHcmFkaWVudD48L2RlZnM+PHBhdGggZmlsbD0iIzI0Mzg2QyIgZD0ibTIwMS4zMTcgMjcxLjcyMmwtNS44OTQtMTYyLjUwOWwtMTAuNjc1LTQyLjg0NUwyNTYgNzMuOTExdjE5Ni41ODJsLTQzLjUyNSAyNS4xMnoiPjwvcGF0aD48cGF0aCBmaWxsPSIjNzU4OUJFIiBkPSJNMjU1Ljk5NSA3My45TDIxMi40NyA5OS4wMzdsLTg5LjgyLTE5LjcwMkwxNy41MTYgMTIyLjE0TDAgNzMuOWw2My45ODgtMzYuOTVMMTI3Ljk5NiAwbDYzLjk5IDM2Ljk1eiI+PC9wYXRoPjxwYXRoIGZpbGw9IiNCMkJGRTgiIGQ9Im0uMDAzIDczLjlsNDMuNTI1IDI1LjEzN2wyNS4yMzEgNzUuMDM3bDg1LjE5IDY4LjE2MmwtMjUuOTQ4IDUzLjM2M2wtNjQuMDA4LTM2Ljk1MmwtNjMuOTktMzYuOTVWNzMuODk4Ij48L3BhdGg+PHBhdGggZmlsbD0iIzI0Mzg2QyIgZD0ibTE1Ni44NTcgMjAyLjgwN2wtMjguODU2IDQyLjU0djUwLjI1Nmw0MC45NDYtMjMuNjI1bDIxLjA5Ny0zMS41MDMiPjwvcGF0aD48cGF0aCBmaWxsPSIjNzU4OUJFIiBkPSJtMTI4LjAxOSAxOTUuMTA3bC00MC45NjMtNzAuOTIybDguODIzLTIzLjUwN2wzMy41NDItMTYuMjYybDM5LjUyNSAzOS43N3oiPjwvcGF0aD48cGF0aCBmaWxsPSIjQjJCRkU4IiBkPSJtODcuMDU2IDEyNC4xNzlsNDAuOTQ1IDIzLjYyNXY0Ny4yODhsLTM3Ljg2OSAxLjYyOWwtMjIuOTA3LTI5LjI1eiI+PC9wYXRoPjxwYXRoIGZpbGw9IiMyNDM4NkMiIGQ9Im0xMjguMDAxIDE0Ny44bDQwLjk0Ni0yMy42MjNsMjcuODY2IDQ2LjRsLTMzLjcyMiAyNy44NjJsLTM1LjA5LTMuMzV6Ij48L3BhdGg+PHBhdGggZmlsbD0iI0RDMjQ0QyIgZD0ibTE2OC45NDcgMjcxLjk3NWw0My41MjUgMjMuNjI2Vjk5LjA0bC00Mi4yNDUtMjQuMzhMMTI4IDUwLjI3Nkw4NS43NTYgNzQuNjU4TDQzLjUzIDk5LjA0djk3LjU0Mmw0Mi4yMjYgMjQuMzgxbDQyLjI0NSAyNC4zODNsNDAuOTQ2LTIzLjY0NnptMC0xMDAuNTMxTDEyOCAxOTUuMDg4bC00MC45NDUtMjMuNjQ0di00Ny4yNjlMMTI4IDEwMC41MzFsNDAuOTQ2IDIzLjY0NHoiPjwvcGF0aD48cGF0aCBmaWxsPSJ1cmwoI2xvZ29zUWRyYW50SWNvbjApIiBkPSJNMTI4LjAxOSAyNDUuMzYzdi01MC4yNjRsLTQwLjczMy0yMy40NDJ2NTAuMTh6Ij48L3BhdGg+PC9nPjwvc3ZnPg==;" vertex="1" parent="1">
                    <mxGeometry x="214.05" y="480" width="51.89" height="60" as="geometry"/>
                </mxCell>
                <mxCell id="14" value="&lt;b&gt;2. Embed &amp;amp; Store&lt;/b&gt;" style="edgeStyle=none;html=1;entryX=0.976;entryY=0.111;entryDx=0;entryDy=0;entryPerimeter=0;" edge="1" parent="1" source="5" target="9">
                    <mxGeometry x="0.0154" y="-7" relative="1" as="geometry">
                        <mxPoint as="offset"/>
                    </mxGeometry>
                </mxCell>
                <mxCell id="25" value="" style="rounded=0;whiteSpace=wrap;html=1;fillColor=none;" vertex="1" parent="1">
                    <mxGeometry x="320" y="78" width="210" height="172" as="geometry"/>
                </mxCell>
                <mxCell id="26" value="&lt;b&gt;Frontend (Vercel)&lt;/b&gt;" style="text;html=1;align=center;verticalAlign=middle;resizable=0;points=[];autosize=1;strokeColor=none;fillColor=none;" vertex="1" parent="1">
                    <mxGeometry x="310" y="50" width="120" height="30" as="geometry"/>
                </mxCell>
                <mxCell id="27" value="" style="rounded=0;whiteSpace=wrap;html=1;fillColor=none;" vertex="1" parent="1">
                    <mxGeometry x="190" y="460" width="100" height="100" as="geometry"/>
                </mxCell>
                <mxCell id="29" value="&lt;b&gt;Qdrant Cloud&lt;/b&gt;" style="text;html=1;align=center;verticalAlign=middle;resizable=0;points=[];autosize=1;strokeColor=none;fillColor=none;" vertex="1" parent="1">
                    <mxGeometry x="180" y="440" width="100" height="30" as="geometry"/>
                </mxCell>
                <mxCell id="30" value="" style="rounded=0;whiteSpace=wrap;html=1;fillColor=none;" vertex="1" parent="1">
                    <mxGeometry x="360" y="300" width="290" height="260" as="geometry"/>
                </mxCell>
                <mxCell id="31" value="&lt;b&gt;Backend (Google Cloud Run)&lt;/b&gt;" style="text;html=1;align=center;verticalAlign=middle;resizable=0;points=[];autosize=1;strokeColor=none;fillColor=none;" vertex="1" parent="1">
                    <mxGeometry x="350" y="560" width="190" height="30" as="geometry"/>
                </mxCell>
            </root>
        </mxGraphModel>
    </diagram>
</mxfile>